{"title":"Ant-Man {2015} NEW HC HDTS XVID AC3 READNFO-MRG","uid":12205748,"size":1631662057,"categoryP":"video","categoryS":"movies","magnet":"?xt=urn:btih:8f6c236d59f15777306837b8866f1450ac1fc055&amp;dn=Ant-Man+%7B2015%7D+NEW+HC+HDTS+XVID+AC3+READNFO-MRG&amp;tr=udp%3A%2F%2Ftracker.openbittorrent.com%3A80&amp;tr=udp%3A%2F%2Fopen.demonii.com%3A1337&amp;tr=udp%3A%2F%2Ftracker.coppersurfer.tk%3A6969&amp;tr=udp%3A%2F%2Fexodus.desync.com%3A6969","seeders":22,"leechers":4,"uploader":"SaM","files":3,"time":1438907274,"description":"Ant-Man {2015} NEW HC HDTS XVID AC3 READNFO-MRG\n\n*****NEW SOURCE*******\n\nNFO .......new video has hc subs ?? not sure wat lang / was gonna\ncrop but loose too much and yea there is a head in bottom\noff screen for only 3 mins .........full movie...clear pic :)\n\nFormat : AVI\nFormat/Info : Audio Video Interleave\nFile size : 1.52 GiB\nDuration : 1h 51mn\nOverall bit rate : 1 955 Kbps\n\nVideo\nID : 0\nFormat : MPEG-4 Visual\nFormat profile : Advanced Simple@L5\nFormat settings, BVOP : 2\nFormat settings, QPel : No\nFormat settings, GMC : No warppoints\nFormat settings, Matrix : Default (H.263)\nCodec ID : DIVX\nCodec ID/Info : Project Mayo\nCodec ID/Hint : DivX 4\nDuration : 1h 51mn\nBit rate : 1 815 Kbps\nWidth : 720 pixels\nHeight : 360 pixels\nDisplay aspect ratio : 2.000\nFrame rate : 25.000 fps\nColor space : YUV\nChroma subsampling : 4:2:0\nBit depth : 8 bits\nScan type : Progressive\nCompression mode : Lossy\nBits/(Pixel*Frame) : 0.280\nStream size : 1.41 GiB (93%)\nWriting library : XviD 67\n\nAudio\nID : 1\nFormat : AC-3\nFormat/Info : Audio Coding 3\nMode extension : CM (complete main)\nFormat settings, Endianness : Big\nCodec ID : 2000\nDuration : 1h 51mn\nBit rate mode : Constant\nBit rate : 128 Kbps\nChannel(s) : 2 channels\nChannel positions : Front: L R\nSampling rate : 48.0 KHz\nCompression mode : Lossy\nStream size : 102 MiB (7%)\nAlignment : Aligned on interleaves\nInterleave, duration : 32 ms (0.80 video frame)\n &lt;a href=&quot;\nhttp://extraimago.com/image/SIh&quot; rel=&quot;nofollow&quot; target=&quot;_NEW&quot;&gt;\nhttp://extraimago.com/image/SIh&lt;/a&gt; &lt;a href=&quot;\nhttp://extraimago.com/image/SId&quot; rel=&quot;nofollow&quot; target=&quot;_NEW&quot;&gt;\nhttp://extraimago.com/image/SId&lt;/a&gt; &lt;a href=&quot;\nhttp://extraimago.com/image/SII&quot; rel=&quot;nofollow&quot; target=&quot;_NEW&quot;&gt;\nhttp://extraimago.com/image/SII&lt;/a&gt; &lt;a href=&quot;\nhttp://extraimago.com/image/SIl&quot; rel=&quot;nofollow&quot; target=&quot;_NEW&quot;&gt;\nhttp://extraimago.com/image/SIl&lt;/a&gt; &lt;a href=&quot;\nhttp://extraimago.com/image/SIi&quot; rel=&quot;nofollow&quot; target=&quot;_NEW&quot;&gt;\nhttp://extraimago.com/image/SIi&lt;/a&gt; &lt;a href=&quot;\nhttp://extraimago.com/image/SIm&quot; rel=&quot;nofollow&quot; target=&quot;_NEW&quot;&gt;\nhttp://extraimago.com/image/SIm&lt;/a&gt; &lt;a href=&quot;\nhttp://extraimago.com/image/SIR&quot; rel=&quot;nofollow&quot; target=&quot;_NEW&quot;&gt;\nhttp://extraimago.com/image/SIR&lt;/a&gt; &lt;a href=&quot;\nhttp://extraimago.com/image/SIQ&quot; rel=&quot;nofollow&quot; target=&quot;_NEW&quot;&gt;\nhttp://extraimago.com/image/SIQ&lt;/a&gt; &lt;a href=&quot;\nhttp://extraimago.com/image/SIL&quot; rel=&quot;nofollow&quot; target=&quot;_NEW&quot;&gt;\nhttp://extraimago.com/image/SIL&lt;/a&gt; &lt;a href=&quot;\nhttp://extraimago.com/image/SIy&quot; rel=&quot;nofollow&quot; target=&quot;_NEW&quot;&gt;\nhttp://extraimago.com/image/SIy&lt;/a&gt; &lt;a href=&quot;\nhttp://extraimago.com/image/SIq&quot; rel=&quot;nofollow&quot; target=&quot;_NEW&quot;&gt;\nhttp://extraimago.com/image/SIq&lt;/a&gt; &lt;a href=&quot;\nhttp://extraimago.com/image/SIS&quot; rel=&quot;nofollow&quot; target=&quot;_NEW&quot;&gt;\nhttp://extraimago.com/image/SIS&lt;/a&gt; &lt;a href=&quot;\nhttp://extraimago.com/image/SIO&quot; rel=&quot;nofollow&quot; target=&quot;_NEW&quot;&gt;\nhttp://extraimago.com/image/SIO&lt;/a&gt; &lt;a href=&quot;\nhttp://extraimago.com/image/SIE&quot; rel=&quot;nofollow&quot; target=&quot;_NEW&quot;&gt;\nhttp://extraimago.com/image/SIE&lt;/a&gt; &lt;a href=&quot;\nhttp://extraimago.com/image/SI1&quot; rel=&quot;nofollow&quot; target=&quot;_NEW&quot;&gt;\nhttp://extraimago.com/image/SI1&lt;/a&gt; &lt;a href=&quot;\nhttp://extraimago.com/image/SIc&quot; rel=&quot;nofollow&quot; target=&quot;_NEW&quot;&gt;\nhttp://extraimago.com/image/SIc&lt;/a&gt; &lt;a href=&quot;\nhttp://extraimago.com/image/SI7&quot; rel=&quot;nofollow&quot; target=&quot;_NEW&quot;&gt;\nhttp://extraimago.com/image/SI7&lt;/a&gt; &lt;a href=&quot;\nhttp://extraimago.com/image/SIs&quot; rel=&quot;nofollow&quot; target=&quot;_NEW&quot;&gt;\nhttp://extraimago.com/image/SIs&lt;/a&gt;","torrent":{"xt":"urn:btih:8f6c236d59f15777306837b8866f1450ac1fc055","amp;dn":"Ant-Man+%7B2015%7D+NEW+HC+HDTS+XVID+AC3+READNFO-MRG","amp;tr":["udp%3A%2F%2Ftracker.openbittorrent.com%3A80","udp%3A%2F%2Fopen.demonii.com%3A1337","udp%3A%2F%2Ftracker.coppersurfer.tk%3A6969","udp%3A%2F%2Fexodus.desync.com%3A6969"],"infoHash":"8f6c236d59f15777306837b8866f1450ac1fc055","infoHashBuffer":{"type":"Buffer","data":[143,108,35,109,89,241,87,119,48,104,55,184,134,111,20,80,172,31,192,85]},"announce":[],"urlList":[]}}